<svg width="18" height="18" viewBox="0 0 18 18" fill="none" xmlns="http://www.w3.org/2000/svg">
<path d="M4.09091 6.95455C4.09091 6.27545 4.63909 5.72727 5.31818 5.72727C5.99727 5.72727 6.54545 6.27545 6.54545 6.95455C6.54545 7.63364 5.99727 8.18182 5.31818 8.18182C4.63909 8.18182 4.09091 7.63364 4.09091 6.95455ZM8.18182 13.5C10.0882 13.5 11.7082 12.3055 12.3627 10.6364H4.00091C4.65545 12.3055 6.27545 13.5 8.18182 13.5ZM11.0455 8.18182C11.7245 8.18182 12.2727 7.63364 12.2727 6.95455C12.2727 6.27545 11.7245 5.72727 11.0455 5.72727C10.3664 5.72727 9.81818 6.27545 9.81818 6.95455C9.81818 7.63364 10.3664 8.18182 11.0455 8.18182ZM16.3636 0H14.7273V1.63636H13.0909V3.27273H14.7273V4.90909H16.3636V3.27273H18V1.63636H16.3636V0ZM14.7273 9C14.7273 12.6164 11.7982 15.5455 8.18182 15.5455C4.56545 15.5455 1.63636 12.6164 1.63636 9C1.63636 5.38364 4.56545 2.45455 8.18182 2.45455C9.37636 2.45455 10.4891 2.78182 11.4545 3.33818V1.50545C10.4206 1.05077 9.30316 0.816692 8.17364 0.818182C3.65727 0.818182 0 4.48364 0 9C0 13.5164 3.65727 17.1818 8.17364 17.1818C12.6982 17.1818 16.3636 13.5164 16.3636 9C16.3636 8.14091 16.2245 7.32273 15.9791 6.54545H14.2364C14.5473 7.30636 14.7273 8.13273 14.7273 9Z" fill="#929292"/>
</svg>
