<svg width="32" height="32" viewBox="0 0 32 32" fill="none" xmlns="http://www.w3.org/2000/svg">
<path d="M17.7466 16.4493C17.0368 15.6785 16.6124 14.6877 16.5442 13.642L16.5442 13.642L16.5439 13.6383C16.4636 12.5067 16.8108 11.4994 17.4873 10.7776C18.1663 10.0532 19.1247 9.65 20.2293 9.65C21.3209 9.65 22.2843 10.0607 22.963 10.7855C23.6395 11.508 23.9941 12.5233 23.9141 13.6392L23.9139 13.6425C23.8444 14.6878 23.4201 15.6781 22.7112 16.4495C21.9988 17.208 21.1157 17.6 20.2293 17.6C19.3421 17.6 18.4583 17.2077 17.7466 16.4493Z" stroke="#5778B2" stroke-width="1.3"/>
<path d="M7.24142 14.5806L7.24142 14.5806C7.17624 13.6627 7.46108 12.8447 8.01529 12.2538C8.57174 11.6605 9.34529 11.3341 10.238 11.3341C11.1259 11.3341 11.9003 11.6689 12.4553 12.2621C13.0083 12.8529 13.3005 13.679 13.2348 14.5832L13.2347 14.5836C13.1014 16.4285 11.6851 17.8098 10.2387 17.8098C8.78905 17.8098 7.37251 16.4278 7.24142 14.5806Z" stroke="#5778B2" stroke-width="1.3"/>
<path d="M25.5185 22.1856C24.1401 24.3037 22.0923 25.9051 19.6962 26.7304C17.2985 27.5563 14.6969 27.5552 12.3051 26.7335C12.3047 26.6573 12.3089 26.5659 12.3199 26.4593C12.3464 26.2008 12.4032 25.9349 12.4517 25.7419L12.4518 25.7413C12.8527 24.1384 13.8452 22.8025 15.3496 21.8758L25.5185 22.1856ZM25.5185 22.1856C25.4351 22.0898 25.3065 21.9773 25.1077 21.8556C23.7565 21.0303 22.0733 20.5817 20.2294 20.5817C18.4246 20.5817 16.6917 21.0492 15.3496 21.8757L25.5185 22.1856Z" stroke="#5778B2" stroke-width="1.3"/>
<path d="M14.4582 22.7689C13.9729 21.7063 13.1177 20.8508 12.0496 20.3597C10.8462 19.8065 9.41898 19.7172 7.92299 20.1018C7.57086 20.192 6.2975 20.7541 6 21" stroke="#5778B2" stroke-width="1.3"/>
<circle cx="16" cy="16" r="11.35" stroke="#5778B2" stroke-width="1.3"/>
</svg>
