<svg
        width="28"
        height="28"
        viewBox="0 0 30 30"
        fill="none"
        xmlns="http://www.w3.org/2000/svg"
      >
        <path
          d="M14.4075 11.9413L14.4076 11.9413L14.4073 11.9384C14.3358 10.9311 14.6449 10.0303 15.2512 9.38341C15.8594 8.73449 16.7168 8.375 17.7006 8.375C18.6734 8.375 19.535 8.74129 20.1428 9.39035C20.7489 10.0376 21.0647 10.9453 20.9934 11.9392L20.9932 11.9417C20.9313 12.8722 20.5536 13.7535 19.9227 14.4401C19.2878 15.1162 18.4974 15.4688 17.7006 15.4688C16.9031 15.4688 16.1122 15.116 15.478 14.44C14.8461 13.7539 14.4683 12.8721 14.4075 11.9413Z"
          stroke={iconColor}
        />
        <path
          d="M6.2677 12.7629L6.2677 12.7629C6.20942 11.9423 6.4641 11.2073 6.96326 10.6751C7.46415 10.141 8.15967 9.84863 8.95832 9.84863C9.75318 9.84863 10.4493 10.1487 10.9487 10.6823C11.4464 11.2141 11.7079 11.9562 11.649 12.7653L11.649 12.7656C11.5303 14.408 10.2679 15.6523 8.95887 15.6523C7.64704 15.6523 6.3844 14.4074 6.2677 12.7629Z"
          stroke={iconColor}
        />
        <path
          d="M22.4136 19.4076C21.199 21.2948 19.3835 22.7215 17.2565 23.4541C15.1288 24.187 12.8189 24.1807 10.6992 23.4411C10.6962 23.3611 10.6994 23.2621 10.7115 23.1449C10.7352 22.9142 10.7856 22.678 10.8285 22.5074L10.8286 22.5069C11.184 21.086 12.064 19.9026 13.3948 19.0828L22.4136 19.4076ZM22.4136 19.4076C22.3369 19.3085 22.2112 19.1912 22.0049 19.0649C20.8105 18.3354 19.325 17.9402 17.7007 17.9402C16.1103 17.9402 14.5812 18.3521 13.3948 19.0828L22.4136 19.4076Z"
          stroke={iconColor}
        />
        <path
          d="M12.6509 19.9228C12.2262 18.993 11.4779 18.2444 10.5434 17.8147C9.49039 17.3307 8.24158 17.2526 6.93259 17.5891C6.62447 17.668 5.51028 18.1598 5.24997 18.375"
          stroke={iconColor}
        />
        <circle cx="14" cy="14" r="10" stroke={iconColor} />
      </svg>